<svg xmlns="http://www.w3.org/2000/svg" version="1.1" xmlns:xlink="http://www.w3.org/1999/xlink" xmlns:svgjs="http://svgjs.dev/svgjs" width="1440" height="560" preserveAspectRatio="none" viewBox="0 0 1440 560"><g mask="url(&quot;#SvgjsMask1000&quot;)" fill="none"><rect width="1440" height="560" x="0" y="0" fill="#0e2a47"></rect><path d="M0 346.63L10 363.9L20 348.2L30 330.49L40 291.47L50 328.28L60 317.42L70 363.85L80 305.71L90 336.86L100 370.74L110 421.58L120 477.7L130 543.34L140 513.71L150 486.27L160 504.77L170 549.23L180 485.6L190 541.55L200 526.29L210 491.48L220 496.73L230 483.48L240 434.43L250 424.35L260 397.54L270 332.36L280 390.97L290 325.35L300 321.33L310 388.09L320 338.9L330 340.59L340 350.11L350 414.06L360 399.2L370 464.07L380 523.25L390 550.44L400 538.81L410 479.54L420 449.93L430 433.76L440 420.59L450 397.42L460 424.64L470 445.51L480 432.08L490 495.72L500 470.11L510 472.94L520 500.15L530 430.6L540 460.78L550 407.72L560 393.48L570 377.58L580 398.67L590 428.88L600 442.98L610 471.65L620 422.93L630 456.17L640 495.37L650 482.68L660 501.78L670 440.24L680 487.23L690 505.13L700 438.96L710 438.95L720 507.5L730 481.31L740 412.52L750 460.96L760 482.75L770 449.09L780 405.87L790 377.11L800 442.71L810 393.62L820 346.15L830 344.48L840 305.43L850 295.02L860 289.2L870 267.76L880 249.23L890 211.9L900 171.84L910 128.98L920 69.43L930 61.36L940 24.57L950 78.59L960 60.45L970 53.46L980 44.38L990 16.58L1000 26.38L1010 59.56L1020 6.98L1030 34.4L1040 61.69L1050 125.8L1060 91.84L1070 98.16L1080 112.68L1090 160.69L1100 124.3L1110 159.49L1120 222.26L1130 244.59L1140 313.52L1150 312.37L1160 364.03L1170 361.21L1180 376.45L1190 363.65L1200 423.88L1210 493.53L1220 501.21L1230 502.32L1240 444.54L1250 508.14L1260 488.4L1270 431.72L1280 405.97L1290 358.99L1300 307.84L1310 275.98L1320 234.7L1330 228.39L1340 218.31L1350 206.6L1360 153.09L1370 83.92L1380 57L1390 57.78L1400 17.21L1410 21.95L1420 11.53L1430 30.51L1440 20.38" stroke="#224b75" stroke-width="2"></path><path d="M0 346.63L10 363.9L20 348.2L30 330.49L40 291.47L50 328.28L60 317.42L70 363.85L80 305.71L90 336.86L100 370.74L110 421.58L120 477.7L130 543.34L140 513.71L150 486.27L160 504.77L170 549.23L180 485.6L190 541.55L200 526.29L210 491.48L220 496.73L230 483.48L240 434.43L250 424.35L260 397.54L270 332.36L280 390.97L290 325.35L300 321.33L310 388.09L320 338.9L330 340.59L340 350.11L350 414.06L360 399.2L370 464.07L380 523.25L390 550.44L400 538.81L410 479.54L420 449.93L430 433.76L440 420.59L450 397.42L460 424.64L470 445.51L480 432.08L490 495.72L500 470.11L510 472.94L520 500.15L530 430.6L540 460.78L550 407.72L560 393.48L570 377.58L580 398.67L590 428.88L600 442.98L610 471.65L620 422.93L630 456.17L640 495.37L650 482.68L660 501.78L670 440.24L680 487.23L690 505.13L700 438.96L710 438.95L720 507.5L730 481.31L740 412.52L750 460.96L760 482.75L770 449.09L780 405.87L790 377.11L800 442.71L810 393.62L820 346.15L830 344.48L840 305.43L850 295.02L860 289.2L870 267.76L880 249.23L890 211.9L900 171.84L910 128.98L920 69.43L930 61.36L940 24.57L950 78.59L960 60.45L970 53.46L980 44.38L990 16.58L1000 26.38L1010 59.56L1020 6.98L1030 34.4L1040 61.69L1050 125.8L1060 91.84L1070 98.16L1080 112.68L1090 160.69L1100 124.3L1110 159.49L1120 222.26L1130 244.59L1140 313.52L1150 312.37L1160 364.03L1170 361.21L1180 376.45L1190 363.65L1200 423.88L1210 493.53L1220 501.21L1230 502.32L1240 444.54L1250 508.14L1260 488.4L1270 431.72L1280 405.97L1290 358.99L1300 307.84L1310 275.98L1320 234.7L1330 228.39L1340 218.31L1350 206.6L1360 153.09L1370 83.92L1380 57L1390 57.78L1400 17.21L1410 21.95L1420 11.53L1430 30.51L1440 20.38L1440 560L0 560z" fill="url(&quot;#SvgjsLinearGradient1001&quot;)"></path></g><defs><mask id="SvgjsMask1000"><rect width="1440" height="560" fill="#ffffff"></rect></mask><linearGradient x1="50%" y1="0%" x2="50%" y2="100%" id="SvgjsLinearGradient1001"><stop stop-opacity="0.65" stop-color="#224b75" offset="0"></stop><stop stop-opacity="0" stop-color="#508dcc" offset="0.8"></stop></linearGradient></defs></svg>