<svg xmlns="http://www.w3.org/2000/svg" version="1.1" xmlns:xlink="http://www.w3.org/1999/xlink" xmlns:svgjs="http://svgjs.dev/svgjs" width="1440" height="560" preserveAspectRatio="none" viewBox="0 0 1440 560"><g mask="url(&quot;#SvgjsMask1000&quot;)" fill="none"><rect width="1440" height="560" x="0" y="0" fill="#0e2a47"></rect><path d="M -770.8400439418313,101 C -674.84,145.2 -482.84,312.6 -290.8400439418312,322 C -98.84,331.4 -2.84,153.4 189.1599560581688,148 C 381.16,142.6 477.16,275.6 669.1599560581687,295 C 861.16,314.4 994.99,243 1149.1599560581687,245 C 1303.33,247 1381.83,293 1440,305" stroke="rgba(51, 121, 194, 0.58)" stroke-width="2"></path><path d="M -776.4638351133699,281 C -680.46,246.2 -488.46,102.8 -296.46383511336984,107 C -104.46,111.2 -8.46,276.6 183.53616488663016,302 C 375.54,327.4 471.54,231.6 663.5361648866301,234 C 855.54,236.4 988.24,349 1143.53616488663,314 C 1298.83,279 1380.71,110 1440,59" stroke="rgba(51, 121, 194, 0.58)" stroke-width="2"></path><path d="M -603.7337350348926,321 C -507.73,274.8 -315.73,67 -123.73373503489255,90 C 68.27,113 164.27,401 356.26626496510744,436 C 548.27,471 644.27,275.4 836.2662649651074,265 C 1028.27,254.6 1195.52,405.6 1316.2662649651074,384 C 1437.01,362.4 1415.25,202.4 1440,157" stroke="rgba(51, 121, 194, 0.58)" stroke-width="2"></path><path d="M -631.0408754102609,294 C -535.04,253.2 -343.04,74.6 -151.04087541026087,90 C 40.96,105.4 136.96,335.4 328.95912458973913,371 C 520.96,406.6 616.96,252.2 808.9591245897391,268 C 1000.96,283.8 1162.75,481 1288.959124589739,450 C 1415.17,419 1409.79,180.4 1440,113" stroke="rgba(51, 121, 194, 0.58)" stroke-width="2"></path></g><defs><mask id="SvgjsMask1000"><rect width="1440" height="560" fill="#ffffff"></rect></mask></defs></svg>