<svg xmlns="http://www.w3.org/2000/svg" version="1.1" xmlns:xlink="http://www.w3.org/1999/xlink" xmlns:svgjs="http://svgjs.dev/svgjs" width="1440" height="560" preserveAspectRatio="none" viewBox="0 0 1440 560"><g clip-path="url(&quot;#SvgjsClipPath1000&quot;)" fill="none"><rect width="1440" height="560" x="0" y="0" fill="rgba(231, 231, 231, 1)"></rect><circle r="93.335" cx="-72.09" cy="86.14" stroke="#365aa3" stroke-opacity="0.25" stroke-width="2"></circle><circle r="93.335" cx="442.13" cy="421.96" stroke="#365aa3" stroke-opacity="0.25" stroke-width="2"></circle><circle r="93.335" cx="784.48" cy="701.1" stroke="#365aa3" stroke-opacity="0.25" stroke-width="2"></circle><circle r="158.355" cx="554.25" cy="181.85" stroke="#365aa3" stroke-opacity="0.25" stroke-width="2"></circle><circle r="153.68" cx="858.44" cy="382.55" stroke="#365aa3" stroke-opacity="0.25" stroke-width="2"></circle><circle r="179.19" cx="450.13" cy="152.07" stroke="#365aa3" stroke-opacity="0.25" stroke-width="2"></circle><circle r="67.28" cx="552.23" cy="227.1" stroke="#365aa3" stroke-opacity="0.25" stroke-width="2"></circle><circle r="49.57" cx="547.54" cy="2.23" stroke="#365aa3" stroke-opacity="0.25" stroke-width="2"></circle><circle r="109.78" cx="72.31" cy="523.54" stroke="#365aa3" stroke-opacity="0.25" stroke-width="2"></circle><circle r="183.095" cx="1147.54" cy="348.32" stroke="#365aa3" stroke-opacity="0.25" stroke-width="2"></circle><circle r="111.375" cx="627.26" cy="304.64" stroke="#365aa3" stroke-opacity="0.25" stroke-width="2"></circle><circle r="63.245" cx="1098.82" cy="416.15" stroke="#365aa3" stroke-opacity="0.25" stroke-width="2"></circle><circle r="92.89" cx="278.95" cy="490.31" stroke="#365aa3" stroke-opacity="0.25" stroke-width="2"></circle><circle r="93.725" cx="41.3" cy="109.26" stroke="#365aa3" stroke-opacity="0.25" stroke-width="2"></circle><circle r="66.565" cx="167.22" cy="525.68" stroke="#365aa3" stroke-opacity="0.25" stroke-width="2"></circle><circle r="183.945" cx="931.46" cy="268.94" stroke="#365aa3" stroke-opacity="0.25" stroke-width="2"></circle><circle r="177.38" cx="1135.23" cy="458.27" stroke="#365aa3" stroke-opacity="0.25" stroke-width="2"></circle><circle r="168.535" cx="333.32" cy="71.4" stroke="#365aa3" stroke-opacity="0.25" stroke-width="2"></circle><circle r="94.48" cx="280.36" cy="353.27" stroke="#365aa3" stroke-opacity="0.25" stroke-width="2"></circle><circle r="89.25" cx="1186.66" cy="348.23" stroke="#365aa3" stroke-opacity="0.25" stroke-width="2"></circle><circle r="123.835" cx="1265.99" cy="558.09" stroke="#365aa3" stroke-opacity="0.25" stroke-width="2"></circle><circle r="180.11" cx="768.08" cy="298.39" stroke="#365aa3" stroke-opacity="0.25" stroke-width="2"></circle><circle r="60.92" cx="1431.85" cy="268.9" stroke="#365aa3" stroke-opacity="0.25" stroke-width="2"></circle><circle r="98.76" cx="306.03" cy="389.78" stroke="#365aa3" stroke-opacity="0.25" stroke-width="2"></circle><circle r="135.015" cx="581.73" cy="486.28" stroke="#365aa3" stroke-opacity="0.25" stroke-width="2"></circle><circle r="62.645" cx="1244.14" cy="68.09" stroke="#365aa3" stroke-opacity="0.25" stroke-width="2"></circle><circle r="65.885" cx="795.34" cy="536.17" stroke="#365aa3" stroke-opacity="0.25" stroke-width="2"></circle><circle r="170.28" cx="472.06" cy="46.31" stroke="#365aa3" stroke-opacity="0.25" stroke-width="2"></circle><circle r="138.64" cx="1294.36" cy="14.83" stroke="#365aa3" stroke-opacity="0.25" stroke-width="2"></circle><circle r="158.94" cx="1283.59" cy="111.54" stroke="#365aa3" stroke-opacity="0.25" stroke-width="2"></circle><circle r="74.175" cx="298.11" cy="399.99" stroke="#365aa3" stroke-opacity="0.25" stroke-width="2"></circle><circle r="119.53" cx="583.04" cy="427.62" stroke="#365aa3" stroke-opacity="0.25" stroke-width="2"></circle><circle r="149.92" cx="1028.55" cy="529.98" stroke="#365aa3" stroke-opacity="0.25" stroke-width="2"></circle><circle r="167.445" cx="151.84" cy="3.5" stroke="#365aa3" stroke-opacity="0.25" stroke-width="2"></circle><circle r="64.67" cx="1395.36" cy="532.07" stroke="#365aa3" stroke-opacity="0.25" stroke-width="2"></circle><circle r="144.565" cx="610.24" cy="125.48" stroke="#365aa3" stroke-opacity="0.25" stroke-width="2"></circle><circle r="167.355" cx="616.32" cy="480.7" stroke="#365aa3" stroke-opacity="0.25" stroke-width="2"></circle><circle r="50.13" cx="1352.76" cy="529.41" stroke="#365aa3" stroke-opacity="0.25" stroke-width="2"></circle><circle r="151.71" cx="1109.7" cy="29.66" stroke="#365aa3" stroke-opacity="0.25" stroke-width="2"></circle><circle r="168.11" cx="655.81" cy="393.48" stroke="#365aa3" stroke-opacity="0.25" stroke-width="2"></circle></g><defs><clipPath id="SvgjsClipPath1000"><rect width="1440" height="560" x="0" y="0"></rect></clipPath></defs></svg>